Coordinates
version=1
nRows=24
nColumns=22
inDegrees=yes

Units are S.I. units (second, meters, Newtons, ...)
If the header above contains a line with 'inDegrees', this indicates whether rotational values are in degrees (yes) or radians (no).

endheader
time	pelvis_tilt	pelvis_list	pelvis_rotation	pelvis_tx	pelvis_ty	pelvis_tz	hip_flexion_r	hip_adduction_r	hip_rotation_r	knee_angle_r	ankle_angle_r	subtalar_angle_r	hip_flexion_l	hip_adduction_l	hip_rotation_l	knee_angle_l	ankle_angle_l	subtalar_angle_l	lumbar_extension	lumbar_bending	lumbar_rotation
      4.12000000	      2.65767827	     -2.11091649	      3.50982945	     -1.16184045	      0.91573991	     -0.09678486	    -10.58762629	      6.72301029	     -6.36666250	    -16.73597070	     24.66506475	     -4.95616837	     32.87666638	     -3.40838915	      1.56857287	    -43.55420464	      9.09877432	    -11.31323382	    -19.30176658	      3.28576387	     -3.73384030
      4.13000000	      2.61412862	     -2.10240703	      3.35871631	     -1.16812854	      0.91769811	     -0.09636352	    -10.25284250	      6.67378545	     -6.28736650	    -16.43253891	     24.29784675	     -4.98082727	     32.33721496	     -3.40581794	      2.00265731	    -44.96400092	     10.81218075	    -11.24091289	    -19.17931105	      3.25945454	     -3.53545554
      4.14000000	      2.54361879	     -2.09322394	      3.24758247	     -1.17426273	      0.91951634	     -0.09602567	     -9.87549984	      6.63477826	     -6.21196836	    -16.17784523	     23.86162284	     -5.05670627	     31.79010774	     -3.38517919	      2.39981357	    -46.32101470	     12.40529773	    -11.39866596	    -19.02632957	      3.23764102	     -3.41362587
      4.15000000	      2.49322928	     -2.09680267	      3.20471121	     -1.18024234	      0.92122932	     -0.09579578	     -9.52018501	      6.62826511	     -6.19192602	    -15.94325413	     23.45168911	     -5.15928902	     31.20003356	     -3.35472306	      2.79450632	    -47.63672497	     13.82746672	    -11.50673299	    -18.89710615	      3.24205944	     -3.36870158
      4.16000000	      2.45933000	     -2.12082138	      3.22467032	     -1.18609838	      0.92281401	     -0.09567759	     -9.16922618	      6.65906025	     -6.21558510	    -15.75301209	     23.08105306	     -5.26879342	     30.58091127	     -3.32613146	      3.18982555	    -48.91494087	     15.07496055	    -11.59086832	    -18.79100370	      3.28411213	     -3.39286445
      4.17000000	      2.38664209	     -2.12853178	      3.27949260	     -1.19180509	      0.92420607	     -0.09562184	     -8.76279391	      6.68170126	     -6.24373199	    -15.61346513	     22.70319749	     -5.49761102	     29.97830633	     -3.27346095	      3.54697728	    -50.13288419	     16.20337942	    -12.01703765	    -18.63541569	      3.30345859	     -3.47436671
      4.18000000	      2.35353090	     -2.17275592	      3.39577332	     -1.19738715	      0.92548507	     -0.09565908	     -8.38524225	      6.75903689	     -6.31183277	    -15.51803852	     22.39229706	     -5.66093293	     29.33770575	     -3.25325520	      3.90564923	    -51.31463401	     17.16025663	    -12.26464308	    -18.52786703	      3.37881847	     -3.64035648
      4.19000000	      2.28051175	     -2.17644764	      3.51154192	     -1.20282168	      0.92658366	     -0.09575448	     -7.92699403	      6.78478405	     -6.37434761	    -15.52626074	     22.11813738	     -5.93818981	     28.70436976	     -3.19185931	      4.21030256	    -52.40729204	     18.04308660	    -12.86041456	    -18.37170352	      3.40233347	     -3.81719734
      4.20000000	      2.23097811	     -2.20271358	      3.66251216	     -1.20809508	      0.92756517	     -0.09592648	     -7.48427934	      6.84068461	     -6.45077848	    -15.57489808	     21.89102465	     -6.17003875	     28.04343837	     -3.15342818	      4.50673391	    -53.43812458	     18.80769646	    -13.36704191	    -18.23774780	      3.46068301	     -4.04760262
      4.21000000	      2.18227091	     -2.22624404	      3.82805644	     -1.21320043	      0.92842028	     -0.09616986	     -7.02101584	      6.89070023	     -6.52194569	    -15.69217352	     21.69688028	     -6.39655411	     27.36529984	     -3.11535303	      4.77403082	    -54.37603532	     19.48865072	    -13.89244064	    -18.09815598	      3.52074851	     -4.30349251
      4.22000000	      2.14629552	     -2.26707129	      4.02470969	     -1.21812415	      0.92916198	     -0.09649787	     -6.57010434	      6.96163541	     -6.59553679	    -15.83379144	     21.53700749	     -6.58028938	     26.66746338	     -3.08733400	      5.04972267	    -55.22108682	     20.08869946	    -14.30607389	    -17.96295668	      3.60893482	     -4.59793783
      4.23000000	      2.10129962	     -2.27020705	      4.16786854	     -1.22286308	      0.92980430	     -0.09681625	     -6.07157358	      6.97133382	     -6.64351466	    -16.08171089	     21.40307346	     -6.81986645	     25.93925174	     -3.05739953	      5.20365219	    -55.92785198	     20.66614821	    -14.88244352	    -17.81409227	      3.64194305	     -4.83599310
      4.24000000	      2.07135166	     -2.29975042	      4.35055890	     -1.22741745	      0.93034992	     -0.09722830	     -5.60018671	      7.01328778	     -6.70002753	    -16.32493407	     21.28897317	     -6.99194458	     25.19410805	     -3.04396672	      5.37945624	    -56.51869466	     21.17374015	    -15.23735235	    -17.66899906	      3.71663523	     -5.12050359
      4.25000000	      2.04630513	     -2.31420976	      4.49461214	     -1.23178711	      0.93082248	     -0.09762337	     -5.11553752	      7.02670621	     -6.73042009	    -16.63046733	     21.18882682	     -7.18155198	     24.41621897	     -3.04841830	      5.45919413	    -56.95707941	     21.63347834	    -15.62062156	    -17.52430444	      3.76269523	     -5.34597672
      4.26000000	      2.02846070	     -2.33439672	      4.62602179	     -1.23597513	      0.93122513	     -0.09804021	     -4.64066734	      7.04109550	     -6.73479772	    -16.95117544	     21.08399847	     -7.24930974	     23.61232951	     -3.07452703	      5.49804150	    -57.23584379	     22.01575465	    -15.66949499	    -17.37788647	      3.81215722	     -5.54057412
      4.27000000	      2.02554661	     -2.34782617	      4.78061157	     -1.23999445	      0.93157131	     -0.09855261	     -4.19689692	      7.04680330	     -6.74704807	    -17.26276300	     21.04894401	     -7.43729022	     22.78002094	     -3.07288019	      5.55595563	    -57.34890915	     22.39210921	    -16.00968916	    -17.23879282	      3.86210275	     -5.76078657
      4.28000000	      2.01272007	     -2.38907875	      4.88897575	     -1.24383704	      0.93182624	     -0.09897993	     -3.73015279	      7.07153566	     -6.75647855	    -17.61220974	     20.95899212	     -7.50061016	     21.95138280	     -3.15672827	      5.50091494	    -57.28864831	     22.64836776	    -16.05002542	    -17.07782313	      3.92179954	     -5.89863400
      4.29000000	      2.01170788	     -2.42023031	      4.99532496	     -1.24749877	      0.93204289	     -0.09946052	     -3.29577348	      7.08199014	     -6.75522739	    -17.94845928	     20.91104055	     -7.58201104	     21.08618921	     -3.22373135	      5.43889889	    -57.02090680	     22.89013530	    -16.10882015	    -16.91982025	      3.97184963	     -6.02789290
      4.30000000	      2.07152913	     -2.42723340	      5.08407945	     -1.25097451	      0.93232578	     -0.09993291	     -2.95728548	      7.07363180	     -6.71079699	    -18.25563648	     20.91770259	     -7.73470866	     20.11990298	     -3.28287635	      5.33177484	    -56.51616424	     23.05764342	    -16.23469544	    -16.82812210	      3.98804019	     -6.13254715
      4.31000000	      2.09826651	     -2.47505887	      5.16448259	     -1.25429936	      0.93247428	     -0.10040320	     -2.58445988	      7.10069587	     -6.69393585	    -18.57019698	     20.88692303	     -7.84197781	     19.19359079	     -3.39999199	      5.19282767	    -55.81730467	     23.18615704	    -16.22982220	    -16.68501468	      4.04271716	     -6.19992929
      4.32000000	      2.09650173	     -2.55094727	      5.23971550	     -1.25746660	      0.93249788	     -0.10088945	     -2.18465837	      7.14783206	     -6.71523166	    -18.89277767	     20.84206081	     -7.91512579	     18.29503716	     -3.55393683	      5.03151960	    -54.91403201	     23.29432096	    -16.17432625	    -16.49446814	      4.12204136	     -6.22779705
      4.33000000	      2.18077162	     -2.60402141	      5.28982064	     -1.26045279	      0.93263098	     -0.10135579	     -1.91858496	      7.19053904	     -6.62543556	    -19.16952045	     20.86463155	     -8.04185149	     17.25968744	     -3.70716124	      4.81475797	    -53.75480465	     23.30935594	    -16.03850720	    -16.40545339	      4.17152879	     -6.24910148
      4.34000000	      2.22723071	     -2.69917986	      5.34845466	     -1.26330062	      0.93261172	     -0.10187623	     -1.61252942	      7.26607774	     -6.59451059	    -19.45456360	     20.85350982	     -8.15933584	     16.26957344	     -3.90761235	      4.58114515	    -52.40558485	     23.34197795	    -15.85996265	    -16.26039358	      4.26858200	     -6.24946250
      4.35000000	      2.27322618	     -2.81174993	      5.40631609	     -1.26600876	      0.93252492	     -0.10244604	     -1.31905163	      7.35784279	     -6.56008167	    -19.73118315	     20.85107574	     -8.26839556	     15.26728236	     -4.12932714	      4.32145462	    -50.85865207	     23.38472687	    -15.64606727	    -16.11007448	      4.38600110	     -6.23500650
